<svg xmlns="http://www.w3.org/2000/svg" width="257" height="333" viewBox="0 0 257 333" version="1.1"><path d="M 84.872 35.750 C 83.629 37.336, 83.664 37.371, 85.250 36.128 C 86.916 34.821, 87.445 34, 86.622 34 C 86.415 34, 85.627 34.788, 84.872 35.750 M 79.314 42.750 C 78.972 43.712, 78.509 44.837, 78.287 45.250 C 78.064 45.663, 78.286 46, 78.780 46 C 79.275 46, 80.192 44.875, 80.818 43.500 C 81.546 41.902, 81.593 41, 80.947 41 C 80.392 41, 79.657 41.788, 79.314 42.750 M 73.500 192 C 72.773 193.176, 126.063 193.209, 135.500 192.038 C 139.096 191.592, 128.004 191.235, 107.809 191.147 C 86.266 191.053, 73.895 191.361, 73.500 192 M 9 232.923 C 7.444 233.373, 10.938 233.852, 18.250 234.191 C 32.252 234.840, 54.972 233.948, 50.500 232.924 C 46.494 232.006, 12.170 232.005, 9 232.923 M 184 233 C 170.416 233.547, 171 233.597, 193.250 233.792 C 208.555 233.926, 217 233.644, 217 233 C 217 231.956, 209.930 231.956, 184 233" stroke="none" fill="#f4d2cc" fill-rule="evenodd"/><path d="M 114.301 2.077 C 103.543 5.486, 94.772 14.056, 90.019 25.802 C 88.751 28.936, 86.689 33.799, 85.435 36.608 C 79.171 50.653, 22.823 187.666, 9.911 220.250 L 8.029 225 34.265 224.992 L 60.500 224.984 69.431 202.483 L 78.362 179.982 128.302 180.241 L 178.242 180.500 186.399 202.500 L 194.555 224.500 222.350 224.766 L 250.145 225.032 249.454 222.766 C 247.316 215.751, 217.477 139.176, 186.419 61 L 169.535 18.500 162.489 11.359 C 156.299 5.084, 154.614 3.961, 148.616 2.109 C 139.403 -0.737, 123.228 -0.752, 114.301 2.077 M 124.468 63.175 C 121.837 69.404, 113.988 89.125, 107.025 107 L 94.365 139.500 97.933 140.192 C 102.278 141.036, 157.623 141.208, 160.682 140.388 L 162.864 139.802 159.498 130.151 C 152.933 111.327, 131.094 53.694, 130.180 52.780 C 129.608 52.208, 127.412 56.203, 124.468 63.175 M 2 309.500 L 2 333 129.500 333 L 257 333 257 309.500 L 257 286 129.500 286 L 2 286 2 309.500" stroke="none" fill="#dc4c3c" fill-rule="evenodd"/></svg>